<svg xmlns="http://www.w3.org/2000/svg" viewBox="0 0 60 40" class="lemonLogo" style="enable-background:new 0 0 60 40" xml:space="preserve">
  <linearGradient id="a" gradientUnits="userSpaceOnUse" x1="-66.639" y1="-197.347" x2="-59.699" y2="-197.347" gradientTransform="matrix(-8.7074 0 0 7.2388 -509.964 1448.56)">
    <stop offset="0" style="stop-color:#00eee1"/>
    <stop offset="1" style="stop-color:#ffd233"/>
  </linearGradient>
  <path d="M55.69 15.6c-1.88-.5-4.72-3.88-4.72-3.88C47.18 5.38 39.22 1 29.95 1S12.63 5.43 8.88 11.83c0 0-2.67 3.29-4.55 3.77-1.48.38-2.81 2.21-2.81 3.76v1.17c0 1.55 1.34 3.38 2.81 3.76 1.89.5 4.47 3.77 4.47 3.77C12.52 34.5 20.58 39 29.94 39c9.1 0 16.99-4.24 20.84-10.42 0 0 3.02-3.81 4.9-4.28 1.49-.38 2.81-2.21 2.81-3.76v-1.18c.01-1.56-1.32-3.39-2.8-3.76z" style="fill:url(#a)"/>
  <path d="M29.22 4.79c7.66-.75 16.37 2.98 19.49 10.32C44.21 6.64 33.33 9.98 29.2 4.8l.02-.01z" style="fill:#fff;fill-opacity:.6"/>
</svg>
