<svg xmlns="http://www.w3.org/2000/svg" xmlns:xlink="http://www.w3.org/1999/xlink" viewBox="0 0 114.87 76.59" height="38">
    <defs>
        <style>.cls-1{fill:url(#linear-gradient);}.cls-2{fill:#fff;fill-opacity:0.6;}</style>
        <linearGradient id="linear-gradient" x1="-95.43" y1="216.99" x2="-88.49" y2="216.99" gradientTransform="translate(-1536.18 3204.31) rotate(180) scale(17.55 14.59)" gradientUnits="userSpaceOnUse">
        <stop offset="0" stop-color="#00eee1"/><stop offset="1" stop-color="#ffd233"/>
        </linearGradient>
    </defs>
    <g id="Layer_2" data-name="Layer 2">
        <g id="Layer_1-2" data-name="Layer 1">
            <g id="_12ea874c-bc40-426c-ad50-1bf9d64749b4" data-name="12ea874c-bc40-426c-ad50-1bf9d64749b4">
            <path class="cls-1" d="M109.19,29.42c-3.79-1-9.52-7.82-9.52-7.82C92.05,8.82,76,0,57.32,0S22.41,8.92,14.85,21.82c0,0-5.38,6.64-9.18,7.6C2.69,30.18,0,33.87,0,37v2.36c0,3.12,2.7,6.82,5.67,7.58,3.8,1,9,7.59,9,7.59,7.51,13,23.77,22.06,42.62,22.06,18.35,0,34.24-8.55,42-21,0,0,6.08-7.67,9.88-8.63,3-.76,5.67-4.46,5.67-7.58V37C114.87,33.87,112.18,30.18,109.19,29.42Z"/>
            </g>
            <path class="cls-2" d="M55.85,7.64c15.44-1.51,33,6,39.29,20.81-9.08-17.09-31-10.36-39.33-20.8Z"/>
        </g>
    </g>
</svg>