<?xml version="1.0" encoding="utf-8"?>
<!-- Generator: Adobe Illustrator 25.4.1, SVG Export Plug-In . SVG Version: 6.00 Build 0)  -->
<svg version="1.1" id="Layer_1" xmlns="http://www.w3.org/2000/svg" xmlns:xlink="http://www.w3.org/1999/xlink" x="0px" y="0px"
	 viewBox="0 0 320 100" style="enable-background:new 0 0 320 100;" xml:space="preserve">
<style type="text/css">
	.st0{fill:#1F321D;}
	.st1{fill:url(#SVGID_1_);}
	.st2{fill:#FFFFFF;fill-opacity:0.6;}
	.st3{display:none;}
</style>
<g>
	
		<g id="_x30_08e8f10-b308-4f89-b181-cdeb4a5fe11c" transform="matrix(3.864446718697288,0,0,3.864446718697288,18.686088101822584,161.9176577148673)">
		<path class="st0" d="M22.8-29.8L22.8-29.8c0,0.2-0.1,0.2-0.2,0.2l0,0h-1l0,0c-0.1,0-0.1,0-0.1,0.1l0,0v2.2l0,0
			c0,0.2,0.1,0.4,0.2,0.5l0,0l0,0c0.1,0.1,0.2,0.2,0.5,0.2l0,0h0.3l0,0c0.2,0,0.2,0.1,0.2,0.2l0,0v0.9l0,0c0,0.1-0.1,0.2-0.2,0.2
			l0,0l0,0c-0.3,0-0.5,0-0.6,0l0,0l0,0c-0.6,0-1.1-0.1-1.3-0.3l0,0l0,0c-0.3-0.2-0.5-0.5-0.5-1.1l0,0v-2.7l0,0c0-0.1,0-0.1-0.1-0.1
			l0,0h-0.5l0,0c-0.2,0-0.2-0.1-0.2-0.2l0,0v-0.9l0,0c0-0.2,0.1-0.2,0.2-0.2l0,0H20l0,0c0.1,0,0.1,0,0.1-0.1l0,0v-1.2l0,0
			c0-0.2,0.1-0.2,0.2-0.2l0,0h1.1l0,0c0.2,0,0.2,0.1,0.2,0.2l0,0v1.2l0,0c0,0.1,0,0.1,0.1,0.1l0,0h1l0,0c0.2,0,0.2,0.1,0.2,0.2l0,0
			L22.8-29.8L22.8-29.8z M25.9-30.9L25.9-30.9c0.5,0,0.9,0.1,1.2,0.2l0,0l0,0c0.4,0.2,0.6,0.4,0.8,0.7l0,0l0,0
			c0.2,0.3,0.3,0.6,0.3,0.9l0,0v3.6l0,0c0,0.2-0.1,0.2-0.2,0.2l0,0h-1.2l0,0c-0.2,0-0.2-0.1-0.2-0.2l0,0v-0.2l0,0v-0.1l0,0l0,0
			c0,0,0,0-0.1,0l0,0l0,0c-0.3,0.4-0.8,0.5-1.5,0.5l0,0l0,0c-0.5,0-1-0.2-1.3-0.4l0,0l0,0c-0.3-0.3-0.5-0.7-0.5-1.2l0,0l0,0
			c0-0.5,0.2-1,0.6-1.3l0,0l0,0c0.4-0.3,0.9-0.5,1.7-0.5l0,0h1l0,0c0.1,0,0.1,0,0.1-0.1l0,0v-0.2l0,0c0-0.2-0.1-0.5-0.2-0.5l0,0l0,0
			c-0.2-0.2-0.4-0.2-0.6-0.2l0,0l0,0c-0.2,0-0.4,0-0.5,0.1l0,0l0,0c-0.2,0.1-0.2,0.2-0.3,0.3l0,0l0,0c0,0.1-0.1,0.2-0.2,0.2l0,0
			l-1.2-0.2l0,0c-0.1,0-0.1,0-0.2-0.1l0,0l0,0l-0.1-0.1l0,0l0,0c0-0.3,0.2-0.5,0.4-0.8l0,0l0,0c0.2-0.2,0.5-0.5,0.8-0.6l0,0l0,0
			C25.1-30.8,25.5-30.9,25.9-30.9L25.9-30.9z M25.6-26.4L25.6-26.4c0.3,0,0.5-0.1,0.8-0.2l0,0l0,0c0.2-0.2,0.3-0.4,0.3-0.6l0,0v-0.4
			l0,0c0-0.1,0-0.1-0.1-0.1l0,0h-0.7l0,0c-0.3,0-0.6,0.1-0.8,0.2l0,0l0,0c-0.2,0.2-0.3,0.3-0.3,0.5l0,0l0,0c0,0.2,0.1,0.4,0.2,0.5
			l0,0l0,0C25.3-26.4,25.4-26.4,25.6-26.4L25.6-26.4z M31.5-25.2L31.5-25.2c-0.5,0-0.9-0.1-1.2-0.2l0,0l0,0
			c-0.4-0.2-0.6-0.3-0.8-0.5l0,0l0,0c-0.2-0.2-0.3-0.5-0.3-0.8l0,0v-0.1l0,0c0-0.2,0.1-0.2,0.2-0.2l0,0h1.1l0,0c0.2,0,0.2,0,0.2,0.1
			l0,0v0.1l0,0c0,0.2,0.1,0.3,0.2,0.4l0,0l0,0c0.2,0.1,0.4,0.2,0.7,0.2l0,0l0,0c0.2,0,0.5-0.1,0.6-0.2l0,0l0,0
			c0.2-0.1,0.2-0.2,0.2-0.4l0,0l0,0c0-0.2-0.1-0.2-0.2-0.3l0,0l0,0c-0.2-0.1-0.3-0.2-0.6-0.2l0,0l0,0c-0.4-0.1-0.6-0.2-0.8-0.2l0,0
			l0,0c-0.5-0.2-0.8-0.3-1.1-0.6l0,0l0,0c-0.3-0.2-0.4-0.5-0.4-1l0,0l0,0c0-0.5,0.2-0.9,0.6-1.3l0,0l0,0c0.4-0.3,0.9-0.5,1.6-0.5
			l0,0l0,0c0.5,0,0.8,0.1,1.2,0.2l0,0l0,0c0.4,0.2,0.6,0.4,0.8,0.6l0,0l0,0c0.2,0.2,0.3,0.5,0.3,0.9l0,0l0,0c0,0,0,0.1-0.1,0.1l0,0
			l0,0c0,0-0.1,0.1-0.2,0.1l0,0h-1.1l0,0c-0.2,0-0.2,0-0.2-0.1l0,0v0.1l0,0c0-0.2-0.1-0.3-0.2-0.4l0,0l0,0c-0.2-0.1-0.4-0.2-0.6-0.2
			l0,0l0,0c-0.2,0-0.5,0.1-0.6,0.2l0,0l0,0c-0.2,0.1-0.2,0.2-0.2,0.4l0,0l0,0c0,0.2,0.1,0.2,0.2,0.3l0,0l0,0
			c0.2,0.1,0.4,0.2,0.7,0.2l0,0l0,0c0.2,0.1,0.4,0.1,0.6,0.2l0,0l0,0c0.5,0.2,0.9,0.3,1.2,0.6l0,0l0,0c0.3,0.2,0.5,0.6,0.5,1l0,0
			l0,0c0,0.5-0.2,0.9-0.6,1.2l0,0l0,0C32.8-25.4,32.2-25.2,31.5-25.2L31.5-25.2z M34.9-25.3L34.9-25.3c-0.2,0-0.2-0.1-0.2-0.2l0,0
			v-7.2l0,0c0-0.2,0.1-0.2,0.2-0.2l0,0h1.2l0,0c0.2,0,0.2,0.1,0.2,0.2l0,0v3.5l0,0v0.1l0,0l0,0c0,0,0,0,0.1,0l0,0l1.5-1.7l0,0
			c0.1-0.1,0.2-0.1,0.2-0.1l0,0h1.3l0,0c0.1,0,0.1,0,0.2,0l0,0l0,0l0.1,0.1l0,0l0,0c0,0.1,0,0.1-0.1,0.2l0,0l-1.3,1.7l0,0v0.1l0,0
			l1.6,3.4v0.1l0,0c0,0.1-0.1,0.2-0.2,0.2l0,0h-1.2l0,0c-0.1,0-0.2-0.1-0.2-0.2l0,0l-1.1-2.5l0,0c0-0.1-0.1-0.1-0.1,0l0,0L36.3-27
			l0,0v0.1l0,0v1.5l0,0c0,0.2-0.1,0.2-0.2,0.2l0,0L34.9-25.3L34.9-25.3z M42.8-25.3L42.8-25.3c-0.2,0-0.2-0.1-0.2-0.2l0,0v-7.2l0,0
			c0-0.2,0.1-0.2,0.2-0.2l0,0H44l0,0c0.2,0,0.2,0.1,0.2,0.2l0,0v7.1l0,0c0,0.2-0.1,0.2-0.2,0.2l0,0L42.8-25.3L42.8-25.3z M48-26.5
			L48-26.5c0.5,0,0.8-0.2,1.1-0.5l0,0l0,0c0.1-0.1,0.1-0.1,0.2-0.1l0,0l0,0c0.1,0,0.1,0,0.2,0.1l0,0l0.6,0.6l0,0
			c0.1,0.1,0.1,0.1,0.1,0.2l0,0l0,0c0,0.1,0,0.1-0.1,0.2l0,0l0,0c-0.2,0.3-0.5,0.5-0.9,0.7l0,0l0,0c-0.4,0.2-0.8,0.2-1.2,0.2l0,0
			l0,0c-0.7,0-1.2-0.2-1.6-0.5l0,0l0,0c-0.5-0.3-0.7-0.8-0.8-1.4l0,0l0,0c-0.1-0.3-0.2-0.6-0.2-1l0,0l0,0c0-0.4,0-0.8,0.1-1.1l0,0
			l0,0c0.2-0.5,0.5-0.9,0.8-1.3l0,0l0,0c0.5-0.3,0.9-0.5,1.5-0.5l0,0l0,0c0.7,0,1.2,0.2,1.7,0.6l0,0l0,0c0.4,0.4,0.7,1,0.8,1.8l0,0
			l0,0c0,0.2,0.1,0.5,0.1,0.8l0,0l0,0c0,0.2-0.1,0.2-0.2,0.2l0,0h-3.3l0,0c-0.1,0-0.1,0-0.1,0.1l0,0l0,0c0,0.2,0.1,0.2,0.1,0.3l0,0
			l0,0c0.1,0.2,0.2,0.4,0.4,0.5l0,0l0,0C47.4-26.5,47.7-26.5,48-26.5L48-26.5z M47.7-29.6L47.7-29.6c-0.2,0-0.5,0.1-0.6,0.2l0,0l0,0
			c-0.2,0.1-0.2,0.2-0.3,0.5l0,0l0,0c0,0.2-0.1,0.2-0.1,0.3l0,0l0,0c0,0.1,0,0.1,0.1,0.1l0,0h1.8l0,0c0,0,0.1,0,0.1-0.1l0,0l0,0
			c0-0.1,0-0.2,0-0.2l0,0l0,0c-0.1-0.2-0.2-0.4-0.3-0.5l0,0l0,0C48.1-29.5,48-29.6,47.7-29.6L47.7-29.6z M57.3-30.9L57.3-30.9
			c0.5,0,1,0.2,1.3,0.5l0,0l0,0c0.3,0.3,0.5,0.8,0.5,1.4l0,0v3.5l0,0c0,0.2-0.1,0.2-0.2,0.2l0,0h-1.2l0,0c-0.2,0-0.2-0.1-0.2-0.2
			l0,0v-3.2l0,0c0-0.3-0.1-0.5-0.2-0.7l0,0l0,0c-0.2-0.2-0.4-0.2-0.6-0.2l0,0l0,0c-0.2,0-0.5,0.1-0.6,0.2l0,0l0,0
			c-0.2,0.2-0.3,0.4-0.3,0.7l0,0v3.1l0,0c0,0.2-0.1,0.2-0.2,0.2l0,0h-1.2l0,0c-0.2,0-0.2-0.1-0.2-0.2l0,0v-3.1l0,0
			c0-0.3-0.1-0.5-0.2-0.7l0,0l0,0c-0.2-0.2-0.4-0.2-0.6-0.2l0,0l0,0c-0.2,0-0.4,0.1-0.6,0.2l0,0l0,0c-0.2,0.2-0.2,0.3-0.3,0.5l0,0
			v3.4l0,0c0,0.2-0.1,0.2-0.2,0.2l0,0h-1.2l0,0c-0.2,0-0.2-0.1-0.2-0.2l0,0v-5.2l0,0c0-0.2,0.1-0.2,0.2-0.2l0,0h1.2l0,0
			c0.2,0,0.2,0.1,0.2,0.2l0,0v0.3l0,0v0.1l0,0l0,0c0,0,0,0,0.1,0l0,0l0,0c0.3-0.5,0.8-0.6,1.4-0.6l0,0l0,0c0.4,0,0.7,0.1,0.9,0.2
			l0,0l0,0c0.2,0.2,0.5,0.4,0.6,0.6l0,0l0,0v0.1l0,0l0,0c0,0,0,0,0.1-0.1l0,0l0,0c0.2-0.3,0.4-0.5,0.6-0.6l0,0l0,0
			C56.6-30.8,56.9-30.9,57.3-30.9L57.3-30.9z M62.6-25.2L62.6-25.2c-0.6,0-1.2-0.2-1.5-0.5l0,0l0,0c-0.5-0.3-0.7-0.8-0.9-1.3l0,0
			l0,0C60.1-27.3,60-27.7,60-28l0,0l0,0c0-0.5,0.1-0.8,0.2-1.2l0,0l0,0c0.2-0.5,0.5-0.9,0.8-1.2l0,0l0,0c0.5-0.3,0.9-0.5,1.5-0.5
			l0,0l0,0c0.6,0,1.1,0.2,1.5,0.5l0,0l0,0c0.4,0.3,0.7,0.7,0.8,1.2l0,0l0,0c0.1,0.3,0.2,0.7,0.2,1.2l0,0l0,0c0,0.4-0.1,0.8-0.2,1.1
			l0,0l0,0c-0.2,0.5-0.5,1-0.9,1.3l0,0l0,0C63.7-25.4,63.2-25.2,62.6-25.2L62.6-25.2z M62.6-26.5L62.6-26.5c0.2,0,0.5-0.1,0.6-0.2
			l0,0l0,0c0.2-0.2,0.3-0.3,0.4-0.6l0,0l0,0c0.1-0.2,0.1-0.5,0.1-0.8l0,0l0,0c0-0.3,0-0.5-0.1-0.8l0,0l0,0c-0.1-0.2-0.2-0.5-0.4-0.5
			l0,0l0,0c-0.2-0.2-0.4-0.2-0.6-0.2l0,0l0,0c-0.2,0-0.5,0.1-0.6,0.2l0,0l0,0c-0.2,0.2-0.3,0.3-0.4,0.5l0,0l0,0
			c-0.1,0.2-0.1,0.5-0.1,0.8l0,0l0,0c0,0.3,0,0.5,0.1,0.8l0,0l0,0c0.1,0.2,0.2,0.5,0.4,0.6l0,0l0,0C62.2-26.6,62.3-26.5,62.6-26.5
			L62.6-26.5z M69-30.9L69-30.9c0.5,0,1,0.2,1.4,0.5l0,0l0,0c0.4,0.4,0.5,0.8,0.5,1.5l0,0v3.5l0,0c0,0.2-0.1,0.2-0.2,0.2l0,0h-1.2
			l0,0c-0.2,0-0.2-0.1-0.2-0.2l0,0v-3.2l0,0c0-0.3-0.1-0.5-0.2-0.7l0,0l0,0c-0.2-0.2-0.4-0.2-0.6-0.2l0,0l0,0
			c-0.2,0-0.5,0.1-0.6,0.2l0,0l0,0c-0.2,0.2-0.2,0.4-0.2,0.7l0,0v3.1l0,0c0,0.2-0.1,0.2-0.2,0.2l0,0h-1.2l0,0
			c-0.2,0-0.2-0.1-0.2-0.2l0,0v-5.1l0,0c0-0.2,0.1-0.2,0.2-0.2l0,0h1.2l0,0c0.2,0,0.2,0.1,0.2,0.2l0,0v0.3l0,0v0.1l0,0l0,0l0,0l0,0
			l0,0C68-30.6,68.4-30.9,69-30.9L69-30.9z"/>
	</g>
	<g>
		
			<g id="_x31_2ea874c-bc40-426c-ad50-1bf9d64749b4" transform="matrix(1.1687214530526242,0,0,1.1687214530526242,91.59782004213307,63.592065544320306)">
			
				<linearGradient id="SVGID_1_" gradientUnits="userSpaceOnUse" x1="-1017.33" y1="272.9467" x2="-1014.3597" y2="272.9467" gradientTransform="matrix(-20.5072 0 0 17.052 -20867.0156 -4665.916)">
				<stop  offset="0" style="stop-color:#00EEE1"/>
				<stop  offset="1" style="stop-color:#FFD233"/>
			</linearGradient>
			<path class="st1" d="M-15-14.9c-1.4-0.3-3.5-2.9-3.5-2.9c-2.8-4.7-8.7-7.9-15.5-7.9c-6.9,0-12.8,3.3-15.5,8c0,0-2,2.4-3.3,2.8
				c-1.1,0.3-2.1,1.6-2.1,2.8v0.9c0,1.2,1,2.5,2.1,2.8c1.4,0.3,3.3,2.8,3.3,2.8c2.7,4.8,8.7,8.1,15.6,8.1c6.7,0,12.5-3.1,15.4-7.7
				c0,0,2.2-2.8,3.6-3.2c1.1-0.3,2.1-1.6,2.1-2.8v-0.9C-13-13.3-14-14.6-15-14.9z"/>
		</g>
		<path class="st2" d="M51.2,36.8c6.6-0.6,14.1,2.6,16.8,8.9C64.1,38.4,54.7,41.3,51.2,36.8L51.2,36.8z"/>
	</g>
</g>
<g id="lines" class="st3">
</g>
</svg>
