<?xml version="1.0" encoding="utf-8"?>
<!-- Generator: Adobe Illustrator 25.4.1, SVG Export Plug-In . SVG Version: 6.00 Build 0)  -->
<svg version="1.1" id="Layer_1" xmlns="http://www.w3.org/2000/svg" xmlns:xlink="http://www.w3.org/1999/xlink" x="0px" y="0px"
	 viewBox="0 0 320 100" height="4rem" style="enable-background:new 0 0 320 100;" xml:space="preserve">
<style type="text/css">
	.st0{fill:#1F321D;}
	.st1{display:none;}
	.st2{fill:url(#SVGID_1_);}
	.st3{fill:#FFFFFF;fill-opacity:0.6;}
</style>
<g id="_x30_08e8f10-b308-4f89-b181-cdeb4a5fe11c" transform="matrix(3.864446718697288,0,0,3.864446718697288,18.686088101822584,161.9176577148673)">
	<path class="st0" d="M22.8-29.6L22.8-29.6c0,0.2-0.1,0.2-0.2,0.2l0,0h-1l0,0c-0.1,0-0.1,0-0.1,0.1l0,0v2.2l0,0
		c0,0.2,0.1,0.4,0.2,0.5l0,0l0,0c0.1,0.1,0.2,0.2,0.5,0.2l0,0h0.3l0,0c0.2,0,0.2,0.1,0.2,0.2l0,0v0.9l0,0c0,0.1-0.1,0.2-0.2,0.2l0,0
		l0,0c-0.3,0-0.5,0-0.6,0l0,0l0,0c-0.6,0-1.1-0.1-1.3-0.3l0,0l0,0c-0.3-0.2-0.5-0.5-0.5-1.1l0,0v-2.7l0,0c0-0.1,0-0.1-0.1-0.1l0,0
		h-0.5l0,0c-0.2,0-0.2-0.1-0.2-0.2l0,0v-0.9l0,0c0-0.2,0.1-0.2,0.2-0.2l0,0H20l0,0c0.1,0,0.1,0,0.1-0.1l0,0v-1.2l0,0
		c0-0.2,0.1-0.2,0.2-0.2l0,0h1.1l0,0c0.2,0,0.2,0.1,0.2,0.2l0,0v1.2l0,0c0,0.1,0,0.1,0.1,0.1l0,0h1l0,0c0.2,0,0.2,0.1,0.2,0.2l0,0
		L22.8-29.6L22.8-29.6z M25.9-30.7L25.9-30.7c0.5,0,0.9,0.1,1.2,0.2l0,0l0,0c0.4,0.2,0.6,0.4,0.8,0.7l0,0l0,0
		c0.2,0.3,0.3,0.6,0.3,0.9l0,0v3.6l0,0c0,0.2-0.1,0.2-0.2,0.2l0,0h-1.2l0,0c-0.2,0-0.2-0.1-0.2-0.2l0,0v-0.2l0,0v-0.1l0,0l0,0
		c0,0,0,0-0.1,0l0,0l0,0c-0.3,0.4-0.8,0.5-1.5,0.5l0,0l0,0c-0.5,0-1-0.2-1.3-0.4l0,0l0,0c-0.3-0.3-0.5-0.7-0.5-1.2l0,0l0,0
		c0-0.5,0.2-1,0.6-1.3l0,0l0,0c0.4-0.3,0.9-0.5,1.7-0.5l0,0h1l0,0c0.1,0,0.1,0,0.1-0.1l0,0v-0.2l0,0c0-0.2-0.1-0.5-0.2-0.5l0,0l0,0
		c-0.2-0.2-0.4-0.2-0.6-0.2l0,0l0,0c-0.2,0-0.4,0-0.5,0.1l0,0l0,0c-0.2,0.1-0.2,0.2-0.3,0.3l0,0l0,0c0,0.1-0.1,0.2-0.2,0.2l0,0
		L23.7-29l0,0c-0.1,0-0.1,0-0.2-0.1l0,0l0,0l-0.1-0.1l0,0l0,0c0-0.3,0.2-0.5,0.4-0.8l0,0l0,0c0.2-0.2,0.5-0.5,0.8-0.6l0,0l0,0
		C25.1-30.6,25.5-30.7,25.9-30.7L25.9-30.7z M25.6-26.2L25.6-26.2c0.3,0,0.5-0.1,0.8-0.2l0,0l0,0c0.2-0.2,0.3-0.4,0.3-0.6l0,0v-0.4
		l0,0c0-0.1,0-0.1-0.1-0.1l0,0h-0.7l0,0c-0.3,0-0.6,0.1-0.8,0.2l0,0l0,0c-0.2,0.2-0.3,0.3-0.3,0.5l0,0l0,0c0,0.2,0.1,0.4,0.2,0.5
		l0,0l0,0C25.3-26.2,25.4-26.2,25.6-26.2L25.6-26.2z M31.5-25L31.5-25c-0.5,0-0.9-0.1-1.2-0.2l0,0l0,0c-0.4-0.2-0.6-0.3-0.8-0.5l0,0
		l0,0c-0.2-0.2-0.3-0.5-0.3-0.8l0,0v-0.1l0,0c0-0.2,0.1-0.2,0.2-0.2l0,0h1.1l0,0c0.2,0,0.2,0,0.2,0.1l0,0v0.1l0,0
		c0,0.2,0.1,0.3,0.2,0.4l0,0l0,0c0.2,0.1,0.4,0.2,0.7,0.2l0,0l0,0c0.2,0,0.5-0.1,0.6-0.2l0,0l0,0c0.2-0.1,0.2-0.2,0.2-0.4l0,0l0,0
		c0-0.2-0.1-0.2-0.2-0.3l0,0l0,0c-0.2-0.1-0.3-0.2-0.6-0.2l0,0l0,0c-0.4-0.1-0.6-0.2-0.8-0.2l0,0l0,0c-0.5-0.2-0.8-0.3-1.1-0.6l0,0
		l0,0c-0.3-0.2-0.4-0.5-0.4-1l0,0l0,0c0-0.5,0.2-0.9,0.6-1.3l0,0l0,0c0.4-0.3,0.9-0.5,1.6-0.5l0,0l0,0c0.5,0,0.8,0.1,1.2,0.2l0,0
		l0,0c0.4,0.2,0.6,0.4,0.8,0.6l0,0l0,0c0.2,0.2,0.3,0.5,0.3,0.9l0,0l0,0c0,0,0,0.1-0.1,0.1l0,0l0,0c0,0-0.1,0.1-0.2,0.1l0,0h-1.1
		l0,0c-0.2,0-0.2,0-0.2-0.1l0,0v0.1l0,0c0-0.2-0.1-0.3-0.2-0.4l0,0l0,0c-0.2-0.1-0.4-0.2-0.6-0.2l0,0l0,0c-0.2,0-0.5,0.1-0.6,0.2
		l0,0l0,0c-0.2,0.1-0.2,0.2-0.2,0.4l0,0l0,0c0,0.2,0.1,0.2,0.2,0.3l0,0l0,0c0.2,0.1,0.4,0.2,0.7,0.2l0,0l0,0
		c0.2,0.1,0.4,0.1,0.6,0.2l0,0l0,0c0.5,0.2,0.9,0.3,1.2,0.6l0,0l0,0c0.3,0.2,0.5,0.6,0.5,1l0,0l0,0c0,0.5-0.2,0.9-0.6,1.2l0,0l0,0
		C32.8-25.2,32.2-25,31.5-25L31.5-25z M34.9-25.1L34.9-25.1c-0.2,0-0.2-0.1-0.2-0.2l0,0v-7.2l0,0c0-0.2,0.1-0.2,0.2-0.2l0,0h1.2l0,0
		c0.2,0,0.2,0.1,0.2,0.2l0,0v3.5l0,0v0.1l0,0l0,0c0,0,0,0,0.1,0l0,0l1.5-1.7l0,0c0.1-0.1,0.2-0.1,0.2-0.1l0,0h1.3l0,0
		c0.1,0,0.1,0,0.2,0l0,0l0,0l0.1,0.1l0,0l0,0c0,0.1,0,0.1-0.1,0.2l0,0l-1.3,1.7l0,0v0.1l0,0l1.6,3.4v0.1l0,0c0,0.1-0.1,0.2-0.2,0.2
		l0,0h-1.2l0,0c-0.1,0-0.2-0.1-0.2-0.2l0,0l-1.1-2.5l0,0c0-0.1-0.1-0.1-0.1,0l0,0l-0.7,0.8l0,0v0.1l0,0v1.5l0,0
		c0,0.2-0.1,0.2-0.2,0.2l0,0L34.9-25.1L34.9-25.1z M42.8-25.1L42.8-25.1c-0.2,0-0.2-0.1-0.2-0.2l0,0v-7.2l0,0c0-0.2,0.1-0.2,0.2-0.2
		l0,0H44l0,0c0.2,0,0.2,0.1,0.2,0.2l0,0v7.1l0,0c0,0.2-0.1,0.2-0.2,0.2l0,0L42.8-25.1L42.8-25.1z M48-26.3L48-26.3
		c0.5,0,0.8-0.2,1.1-0.5l0,0l0,0c0.1-0.1,0.1-0.1,0.2-0.1l0,0l0,0c0.1,0,0.1,0,0.2,0.1l0,0l0.6,0.6l0,0C50-26.1,50-26.1,50-26l0,0
		l0,0c0,0.1,0,0.1-0.1,0.2l0,0l0,0c-0.2,0.3-0.5,0.5-0.9,0.7l0,0l0,0c-0.4,0.2-0.8,0.2-1.2,0.2l0,0l0,0c-0.7,0-1.2-0.2-1.6-0.5l0,0
		l0,0c-0.5-0.3-0.7-0.8-0.8-1.4l0,0l0,0c-0.1-0.3-0.2-0.6-0.2-1l0,0l0,0c0-0.4,0-0.8,0.1-1.1l0,0l0,0c0.2-0.5,0.5-0.9,0.8-1.3l0,0
		l0,0c0.5-0.3,0.9-0.5,1.5-0.5l0,0l0,0c0.7,0,1.2,0.2,1.7,0.6l0,0l0,0c0.4,0.4,0.7,1,0.8,1.8l0,0l0,0c0,0.2,0.1,0.5,0.1,0.8l0,0l0,0
		c0,0.2-0.1,0.2-0.2,0.2l0,0h-3.3l0,0c-0.1,0-0.1,0-0.1,0.1l0,0l0,0c0,0.2,0.1,0.2,0.1,0.3l0,0l0,0c0.1,0.2,0.2,0.4,0.4,0.5l0,0l0,0
		C47.4-26.3,47.7-26.3,48-26.3L48-26.3z M47.7-29.4L47.7-29.4c-0.2,0-0.5,0.1-0.6,0.2l0,0l0,0c-0.2,0.1-0.2,0.2-0.3,0.5l0,0l0,0
		c0,0.2-0.1,0.2-0.1,0.3l0,0l0,0c0,0.1,0,0.1,0.1,0.1l0,0h1.8l0,0c0,0,0.1,0,0.1-0.1l0,0l0,0c0-0.1,0-0.2,0-0.2l0,0l0,0
		c-0.1-0.2-0.2-0.4-0.3-0.5l0,0l0,0C48.1-29.3,48-29.4,47.7-29.4L47.7-29.4z M57.3-30.7L57.3-30.7c0.5,0,1,0.2,1.3,0.5l0,0l0,0
		c0.3,0.3,0.5,0.8,0.5,1.4l0,0v3.5l0,0c0,0.2-0.1,0.2-0.2,0.2l0,0h-1.2l0,0c-0.2,0-0.2-0.1-0.2-0.2l0,0v-3.2l0,0
		c0-0.3-0.1-0.5-0.2-0.7l0,0l0,0c-0.2-0.2-0.4-0.2-0.6-0.2l0,0l0,0c-0.2,0-0.5,0.1-0.6,0.2l0,0l0,0c-0.2,0.2-0.3,0.4-0.3,0.7l0,0
		v3.1l0,0c0,0.2-0.1,0.2-0.2,0.2l0,0h-1.2l0,0c-0.2,0-0.2-0.1-0.2-0.2l0,0v-3.1l0,0c0-0.3-0.1-0.5-0.2-0.7l0,0l0,0
		c-0.2-0.2-0.4-0.2-0.6-0.2l0,0l0,0c-0.2,0-0.4,0.1-0.6,0.2l0,0l0,0c-0.2,0.2-0.2,0.3-0.3,0.5l0,0v3.4l0,0c0,0.2-0.1,0.2-0.2,0.2
		l0,0h-1.2l0,0c-0.2,0-0.2-0.1-0.2-0.2l0,0v-5.2l0,0c0-0.2,0.1-0.2,0.2-0.2l0,0h1.2l0,0c0.2,0,0.2,0.1,0.2,0.2l0,0v0.3l0,0v0.1l0,0
		l0,0c0,0,0,0,0.1,0l0,0l0,0c0.3-0.5,0.8-0.6,1.4-0.6l0,0l0,0c0.4,0,0.7,0.1,0.9,0.2l0,0l0,0c0.2,0.2,0.5,0.4,0.6,0.6l0,0l0,0v0.1
		l0,0l0,0c0,0,0,0,0.1-0.1l0,0l0,0c0.2-0.3,0.4-0.5,0.6-0.6l0,0l0,0C56.6-30.6,56.9-30.7,57.3-30.7L57.3-30.7z M62.6-25L62.6-25
		c-0.6,0-1.2-0.2-1.5-0.5l0,0l0,0c-0.5-0.3-0.7-0.8-0.9-1.3l0,0l0,0c-0.1-0.3-0.2-0.7-0.2-1.1l0,0l0,0c0-0.5,0.1-0.8,0.2-1.2l0,0
		l0,0c0.2-0.5,0.5-0.9,0.8-1.2l0,0l0,0c0.5-0.3,0.9-0.5,1.5-0.5l0,0l0,0c0.6,0,1.1,0.2,1.5,0.5l0,0l0,0c0.4,0.3,0.7,0.7,0.8,1.2l0,0
		l0,0c0.1,0.3,0.2,0.7,0.2,1.2l0,0l0,0c0,0.4-0.1,0.8-0.2,1.1l0,0l0,0c-0.2,0.5-0.5,1-0.9,1.3l0,0l0,0C63.7-25.2,63.2-25,62.6-25
		L62.6-25z M62.6-26.3L62.6-26.3c0.2,0,0.5-0.1,0.6-0.2l0,0l0,0c0.2-0.2,0.3-0.3,0.4-0.6l0,0l0,0c0.1-0.2,0.1-0.5,0.1-0.8l0,0l0,0
		c0-0.3,0-0.5-0.1-0.8l0,0l0,0c-0.1-0.2-0.2-0.5-0.4-0.5l0,0l0,0c-0.2-0.2-0.4-0.2-0.6-0.2l0,0l0,0c-0.2,0-0.5,0.1-0.6,0.2l0,0l0,0
		c-0.2,0.2-0.3,0.3-0.4,0.5l0,0l0,0c-0.1,0.2-0.1,0.5-0.1,0.8l0,0l0,0c0,0.3,0,0.5,0.1,0.8l0,0l0,0c0.1,0.2,0.2,0.5,0.4,0.6l0,0l0,0
		C62.2-26.4,62.3-26.3,62.6-26.3L62.6-26.3z M69-30.7L69-30.7c0.5,0,1,0.2,1.4,0.5l0,0l0,0c0.4,0.4,0.5,0.8,0.5,1.5l0,0v3.5l0,0
		c0,0.2-0.1,0.2-0.2,0.2l0,0h-1.2l0,0c-0.2,0-0.2-0.1-0.2-0.2l0,0v-3.2l0,0c0-0.3-0.1-0.5-0.2-0.7l0,0l0,0c-0.2-0.2-0.4-0.2-0.6-0.2
		l0,0l0,0c-0.2,0-0.5,0.1-0.6,0.2l0,0l0,0c-0.2,0.2-0.2,0.4-0.2,0.7l0,0v3.1l0,0c0,0.2-0.1,0.2-0.2,0.2l0,0h-1.2l0,0
		c-0.2,0-0.2-0.1-0.2-0.2l0,0v-5.1l0,0c0-0.2,0.1-0.2,0.2-0.2l0,0h1.2l0,0c0.2,0,0.2,0.1,0.2,0.2l0,0v0.3l0,0v0.1l0,0l0,0l0,0l0,0
		l0,0C68-30.5,68.4-30.7,69-30.7L69-30.7z"/>
</g>
<g id="lines" class="st1">
</g>
<g id="Layer_2_00000155116591088548967400000002829311744308806561_">
	<g id="Layer_1-2">
		<g id="_12ea874c-bc40-426c-ad50-1bf9d64749b4">
			
				<linearGradient id="SVGID_1_" gradientUnits="userSpaceOnUse" x1="-1124.1367" y1="378.5635" x2="-1121.0621" y2="378.5635" gradientTransform="matrix(-17.55 0 0 14.59 -19640.9785 -5472.5)">
				<stop  offset="0" style="stop-color:#00EEE1"/>
				<stop  offset="1" style="stop-color:#FFD233"/>
			</linearGradient>
			<path class="st2" d="M74.6,46.8c-1.7-0.4-4.2-3.5-4.2-3.5c-3.4-5.7-10.5-9.6-18.8-9.6s-15.5,4-18.8,9.7c0,0-2.4,2.9-4.1,3.4
				c-1.3,0.3-2.5,2-2.5,3.4v1c0,1.4,1.2,3,2.5,3.4c1.7,0.4,4,3.4,4,3.4c3.3,5.8,10.5,9.8,18.9,9.8c8.1,0,15.2-3.8,18.6-9.3
				c0,0,2.7-3.4,4.4-3.8c1.3-0.3,2.5-2,2.5-3.4v-1.1C77.1,48.8,75.9,47.1,74.6,46.8z"/>
		</g>
		<path class="st3" d="M51,37.2c6.8-0.7,14.6,2.7,17.4,9.2C64.3,38.8,54.6,41.8,51,37.2L51,37.2z"/>
	</g>
</g>
</svg>
